<mxfile host="app.diagrams.net" agent="Mozilla/5.0 (Windows NT 10.0; Win64; x64) AppleWebKit/537.36 (KHTML, like Gecko) Chrome/136.0.0.0 Safari/537.36" version="27.0.6">
  <diagram name="PÃ¡gina-1" id="HzEoKzV8cTz-qbzTkeme">
    <mxGraphModel dx="86" dy="28" grid="1" gridSize="10" guides="1" tooltips="1" connect="1" arrows="1" fold="1" page="1" pageScale="1" pageWidth="1169" pageHeight="827" math="0" shadow="0">
      <root>
        <mxCell id="0" />
        <mxCell id="1" parent="0" />
        <mxCell id="Qc57WbRolfH4Te-wwQ6t-5" value="&lt;i&gt;Estado&lt;/i&gt;" style="swimlane;fontStyle=1;align=center;verticalAlign=top;childLayout=stackLayout;horizontal=1;startSize=26;horizontalStack=0;resizeParent=1;resizeParentMax=0;resizeLast=0;collapsible=1;marginBottom=0;whiteSpace=wrap;html=1;" vertex="1" parent="1">
          <mxGeometry x="370" y="260" width="230" height="160" as="geometry" />
        </mxCell>
        <mxCell id="Qc57WbRolfH4Te-wwQ6t-6" value="- videojuego: Videojuego" style="text;strokeColor=none;fillColor=none;align=left;verticalAlign=top;spacingLeft=4;spacingRight=4;overflow=hidden;rotatable=0;points=[[0,0.5],[1,0.5]];portConstraint=eastwest;whiteSpace=wrap;html=1;" vertex="1" parent="Qc57WbRolfH4Te-wwQ6t-5">
          <mxGeometry y="26" width="230" height="26" as="geometry" />
        </mxCell>
        <mxCell id="Qc57WbRolfH4Te-wwQ6t-7" value="" style="line;strokeWidth=1;fillColor=none;align=left;verticalAlign=middle;spacingTop=-1;spacingLeft=3;spacingRight=3;rotatable=0;labelPosition=right;points=[];portConstraint=eastwest;strokeColor=inherit;" vertex="1" parent="Qc57WbRolfH4Te-wwQ6t-5">
          <mxGeometry y="52" width="230" height="8" as="geometry" />
        </mxCell>
        <mxCell id="Qc57WbRolfH4Te-wwQ6t-8" value="+ Estado(videojuego: Videojuego)&lt;div&gt;&lt;i&gt;+ insertarFicha(): void&lt;/i&gt;&lt;/div&gt;&lt;div&gt;&lt;i&gt;+ presionarBotonInicio(): void&lt;/i&gt;&lt;/div&gt;&lt;div&gt;# getVideojuego(): Videojuego&lt;/div&gt;" style="text;strokeColor=none;fillColor=none;align=left;verticalAlign=top;spacingLeft=4;spacingRight=4;overflow=hidden;rotatable=0;points=[[0,0.5],[1,0.5]];portConstraint=eastwest;whiteSpace=wrap;html=1;" vertex="1" parent="Qc57WbRolfH4Te-wwQ6t-5">
          <mxGeometry y="60" width="230" height="100" as="geometry" />
        </mxCell>
        <mxCell id="Qc57WbRolfH4Te-wwQ6t-9" value="Apagado" style="swimlane;fontStyle=1;align=center;verticalAlign=top;childLayout=stackLayout;horizontal=1;startSize=26;horizontalStack=0;resizeParent=1;resizeParentMax=0;resizeLast=0;collapsible=1;marginBottom=0;whiteSpace=wrap;html=1;" vertex="1" parent="1">
          <mxGeometry x="680" y="40" width="240" height="120" as="geometry" />
        </mxCell>
        <mxCell id="Qc57WbRolfH4Te-wwQ6t-11" value="" style="line;strokeWidth=1;fillColor=none;align=left;verticalAlign=middle;spacingTop=-1;spacingLeft=3;spacingRight=3;rotatable=0;labelPosition=right;points=[];portConstraint=eastwest;strokeColor=inherit;" vertex="1" parent="Qc57WbRolfH4Te-wwQ6t-9">
          <mxGeometry y="26" width="240" height="8" as="geometry" />
        </mxCell>
        <mxCell id="Qc57WbRolfH4Te-wwQ6t-12" value="&lt;u&gt;+ Apagado(videojuego: Videojuego)&lt;/u&gt;&lt;div&gt;+ insertarFicha(): void&lt;/div&gt;&lt;div&gt;+ presionarBotonInicio(): void&lt;br&gt;&lt;/div&gt;" style="text;strokeColor=none;fillColor=none;align=left;verticalAlign=top;spacingLeft=4;spacingRight=4;overflow=hidden;rotatable=0;points=[[0,0.5],[1,0.5]];portConstraint=eastwest;whiteSpace=wrap;html=1;" vertex="1" parent="Qc57WbRolfH4Te-wwQ6t-9">
          <mxGeometry y="34" width="240" height="86" as="geometry" />
        </mxCell>
        <mxCell id="Qc57WbRolfH4Te-wwQ6t-23" value="Encendido" style="swimlane;fontStyle=1;align=center;verticalAlign=top;childLayout=stackLayout;horizontal=1;startSize=26;horizontalStack=0;resizeParent=1;resizeParentMax=0;resizeLast=0;collapsible=1;marginBottom=0;whiteSpace=wrap;html=1;" vertex="1" parent="1">
          <mxGeometry x="680" y="200" width="240" height="120" as="geometry" />
        </mxCell>
        <mxCell id="Qc57WbRolfH4Te-wwQ6t-24" value="" style="line;strokeWidth=1;fillColor=none;align=left;verticalAlign=middle;spacingTop=-1;spacingLeft=3;spacingRight=3;rotatable=0;labelPosition=right;points=[];portConstraint=eastwest;strokeColor=inherit;" vertex="1" parent="Qc57WbRolfH4Te-wwQ6t-23">
          <mxGeometry y="26" width="240" height="8" as="geometry" />
        </mxCell>
        <mxCell id="Qc57WbRolfH4Te-wwQ6t-25" value="&lt;u&gt;+&amp;nbsp;&lt;span style=&quot;text-align: center;&quot;&gt;Encendido&lt;/span&gt;(videojuego: Videojuego)&lt;/u&gt;&lt;div&gt;+ insertarFicha(): void&lt;/div&gt;&lt;div&gt;+ presionarBotonInicio(): void&lt;br&gt;&lt;/div&gt;" style="text;strokeColor=none;fillColor=none;align=left;verticalAlign=top;spacingLeft=4;spacingRight=4;overflow=hidden;rotatable=0;points=[[0,0.5],[1,0.5]];portConstraint=eastwest;whiteSpace=wrap;html=1;" vertex="1" parent="Qc57WbRolfH4Te-wwQ6t-23">
          <mxGeometry y="34" width="240" height="86" as="geometry" />
        </mxCell>
        <mxCell id="Qc57WbRolfH4Te-wwQ6t-26" value="UnJugador" style="swimlane;fontStyle=1;align=center;verticalAlign=top;childLayout=stackLayout;horizontal=1;startSize=26;horizontalStack=0;resizeParent=1;resizeParentMax=0;resizeLast=0;collapsible=1;marginBottom=0;whiteSpace=wrap;html=1;" vertex="1" parent="1">
          <mxGeometry x="680" y="520" width="240" height="120" as="geometry" />
        </mxCell>
        <mxCell id="Qc57WbRolfH4Te-wwQ6t-27" value="" style="line;strokeWidth=1;fillColor=none;align=left;verticalAlign=middle;spacingTop=-1;spacingLeft=3;spacingRight=3;rotatable=0;labelPosition=right;points=[];portConstraint=eastwest;strokeColor=inherit;" vertex="1" parent="Qc57WbRolfH4Te-wwQ6t-26">
          <mxGeometry y="26" width="240" height="8" as="geometry" />
        </mxCell>
        <mxCell id="Qc57WbRolfH4Te-wwQ6t-28" value="&lt;u&gt;+&amp;nbsp;&lt;span style=&quot;text-align: center;&quot;&gt;UnJugador&lt;/span&gt;(videojuego: Videojuego)&lt;/u&gt;&lt;div&gt;+ insertarFicha(): void&lt;/div&gt;&lt;div&gt;+ presionarBotonInicio(): void&lt;br&gt;&lt;/div&gt;" style="text;strokeColor=none;fillColor=none;align=left;verticalAlign=top;spacingLeft=4;spacingRight=4;overflow=hidden;rotatable=0;points=[[0,0.5],[1,0.5]];portConstraint=eastwest;whiteSpace=wrap;html=1;" vertex="1" parent="Qc57WbRolfH4Te-wwQ6t-26">
          <mxGeometry y="34" width="240" height="86" as="geometry" />
        </mxCell>
        <mxCell id="Qc57WbRolfH4Te-wwQ6t-29" value="DosJugadores" style="swimlane;fontStyle=1;align=center;verticalAlign=top;childLayout=stackLayout;horizontal=1;startSize=26;horizontalStack=0;resizeParent=1;resizeParentMax=0;resizeLast=0;collapsible=1;marginBottom=0;whiteSpace=wrap;html=1;" vertex="1" parent="1">
          <mxGeometry x="680" y="360" width="240" height="120" as="geometry" />
        </mxCell>
        <mxCell id="Qc57WbRolfH4Te-wwQ6t-30" value="" style="line;strokeWidth=1;fillColor=none;align=left;verticalAlign=middle;spacingTop=-1;spacingLeft=3;spacingRight=3;rotatable=0;labelPosition=right;points=[];portConstraint=eastwest;strokeColor=inherit;" vertex="1" parent="Qc57WbRolfH4Te-wwQ6t-29">
          <mxGeometry y="26" width="240" height="8" as="geometry" />
        </mxCell>
        <mxCell id="Qc57WbRolfH4Te-wwQ6t-31" value="&lt;u&gt;+&amp;nbsp;&lt;span style=&quot;text-align: center;&quot;&gt;DosJugadores&lt;/span&gt;(videojuego: Videojuego)&lt;/u&gt;&lt;div&gt;+ insertarFicha(): void&lt;/div&gt;&lt;div&gt;+ presionarBotonInicio(): void&lt;br&gt;&lt;/div&gt;" style="text;strokeColor=none;fillColor=none;align=left;verticalAlign=top;spacingLeft=4;spacingRight=4;overflow=hidden;rotatable=0;points=[[0,0.5],[1,0.5]];portConstraint=eastwest;whiteSpace=wrap;html=1;" vertex="1" parent="Qc57WbRolfH4Te-wwQ6t-29">
          <mxGeometry y="34" width="240" height="86" as="geometry" />
        </mxCell>
        <mxCell id="Qc57WbRolfH4Te-wwQ6t-32" value="Videojuego" style="swimlane;fontStyle=1;align=center;verticalAlign=top;childLayout=stackLayout;horizontal=1;startSize=26;horizontalStack=0;resizeParent=1;resizeParentMax=0;resizeLast=0;collapsible=1;marginBottom=0;whiteSpace=wrap;html=1;" vertex="1" parent="1">
          <mxGeometry x="40" y="240" width="230" height="200" as="geometry" />
        </mxCell>
        <mxCell id="Qc57WbRolfH4Te-wwQ6t-33" value="- estado: Estado" style="text;strokeColor=none;fillColor=none;align=left;verticalAlign=top;spacingLeft=4;spacingRight=4;overflow=hidden;rotatable=0;points=[[0,0.5],[1,0.5]];portConstraint=eastwest;whiteSpace=wrap;html=1;" vertex="1" parent="Qc57WbRolfH4Te-wwQ6t-32">
          <mxGeometry y="26" width="230" height="26" as="geometry" />
        </mxCell>
        <mxCell id="Qc57WbRolfH4Te-wwQ6t-34" value="" style="line;strokeWidth=1;fillColor=none;align=left;verticalAlign=middle;spacingTop=-1;spacingLeft=3;spacingRight=3;rotatable=0;labelPosition=right;points=[];portConstraint=eastwest;strokeColor=inherit;" vertex="1" parent="Qc57WbRolfH4Te-wwQ6t-32">
          <mxGeometry y="52" width="230" height="8" as="geometry" />
        </mxCell>
        <mxCell id="Qc57WbRolfH4Te-wwQ6t-35" value="+ Videojuego()&lt;div&gt;+ insertarFicha(): void&lt;/div&gt;&lt;div&gt;+ presionarBotonInicio(): void&lt;/div&gt;&lt;div&gt;+ getEstado(): Estado&lt;/div&gt;&lt;div&gt;+ setEstado(estado: Estado): void&lt;/div&gt;&lt;div&gt;+ terminarVideojuego(): void&lt;/div&gt;" style="text;strokeColor=none;fillColor=none;align=left;verticalAlign=top;spacingLeft=4;spacingRight=4;overflow=hidden;rotatable=0;points=[[0,0.5],[1,0.5]];portConstraint=eastwest;whiteSpace=wrap;html=1;" vertex="1" parent="Qc57WbRolfH4Te-wwQ6t-32">
          <mxGeometry y="60" width="230" height="140" as="geometry" />
        </mxCell>
        <mxCell id="Qc57WbRolfH4Te-wwQ6t-46" value="" style="edgeStyle=orthogonalEdgeStyle;rounded=0;orthogonalLoop=1;jettySize=auto;html=1;" edge="1" parent="1">
          <mxGeometry relative="1" as="geometry">
            <mxPoint x="270" y="339.58" as="sourcePoint" />
            <mxPoint x="370" y="339.58" as="targetPoint" />
          </mxGeometry>
        </mxCell>
        <mxCell id="Qc57WbRolfH4Te-wwQ6t-50" value="" style="endArrow=block;endSize=16;endFill=0;html=1;rounded=0;entryX=0.522;entryY=0.125;entryDx=0;entryDy=0;entryPerimeter=0;" edge="1" parent="1">
          <mxGeometry width="160" relative="1" as="geometry">
            <mxPoint x="640" y="340" as="sourcePoint" />
            <mxPoint x="600" y="339.8" as="targetPoint" />
          </mxGeometry>
        </mxCell>
        <mxCell id="Qc57WbRolfH4Te-wwQ6t-51" value="" style="line;strokeWidth=1;fillColor=none;align=left;verticalAlign=middle;spacingTop=-1;spacingLeft=3;spacingRight=3;rotatable=0;labelPosition=right;points=[];portConstraint=eastwest;strokeColor=inherit;" vertex="1" parent="1">
          <mxGeometry x="640" y="260" width="40" height="8" as="geometry" />
        </mxCell>
        <mxCell id="Qc57WbRolfH4Te-wwQ6t-52" value="" style="line;strokeWidth=1;fillColor=none;align=left;verticalAlign=middle;spacingTop=-1;spacingLeft=3;spacingRight=3;rotatable=0;labelPosition=right;points=[];portConstraint=eastwest;strokeColor=inherit;" vertex="1" parent="1">
          <mxGeometry x="640" y="420" width="40" height="8" as="geometry" />
        </mxCell>
        <mxCell id="Qc57WbRolfH4Te-wwQ6t-53" value="" style="line;strokeWidth=1;fillColor=none;align=left;verticalAlign=middle;spacingTop=-1;spacingLeft=3;spacingRight=3;rotatable=0;labelPosition=right;points=[];portConstraint=eastwest;strokeColor=inherit;" vertex="1" parent="1">
          <mxGeometry x="640" y="580" width="40" height="8" as="geometry" />
        </mxCell>
        <mxCell id="Qc57WbRolfH4Te-wwQ6t-54" value="" style="line;strokeWidth=1;fillColor=none;align=left;verticalAlign=middle;spacingTop=-1;spacingLeft=3;spacingRight=3;rotatable=0;labelPosition=right;points=[];portConstraint=eastwest;strokeColor=inherit;" vertex="1" parent="1">
          <mxGeometry x="640" y="96" width="40" height="8" as="geometry" />
        </mxCell>
        <mxCell id="Qc57WbRolfH4Te-wwQ6t-67" value="" style="endArrow=none;html=1;rounded=0;" edge="1" parent="1">
          <mxGeometry width="50" height="50" relative="1" as="geometry">
            <mxPoint x="640.28" y="584" as="sourcePoint" />
            <mxPoint x="640" y="100" as="targetPoint" />
          </mxGeometry>
        </mxCell>
      </root>
    </mxGraphModel>
  </diagram>
</mxfile>
